<?xml version="1.0" standalone="no"?>
<!DOCTYPE svg PUBLIC "-//W3C//DTD SVG 20010904//EN"
 "http://www.w3.org/TR/2001/REC-SVG-20010904/DTD/svg10.dtd">
<svg version="1.0" xmlns="http://www.w3.org/2000/svg"
 width="752.000000pt" height="752.000000pt" viewBox="0 0 752.000000 752.000000"
 preserveAspectRatio="xMidYMid meet">

<g transform="translate(0.000000,752.000000) scale(0.100000,-0.100000)"
fill="#000000" stroke="none">
<path d="M3605 5873 c-251 -53 -524 -267 -753 -590 -215 -302 -420 -741 -542
-1160 -41 -140 -48 -190 -29 -224 11 -21 339 -189 367 -189 32 1 61 26 307
263 136 130 251 237 255 237 4 0 145 -152 313 -339 204 -226 314 -340 331
-345 43 -11 85 17 225 149 82 76 140 124 148 121 8 -3 96 -64 196 -135 100
-70 192 -131 204 -135 12 -4 36 -1 55 7 47 20 530 334 551 359 26 31 21 81
-23 231 -146 501 -391 989 -656 1308 -147 177 -342 333 -495 396 -146 61 -308
78 -454 46z m280 -188 c255 -60 513 -301 755 -705 78 -130 192 -364 258 -530
54 -137 139 -394 144 -435 3 -24 -14 -37 -187 -150 -104 -69 -196 -125 -203
-125 -7 0 -101 63 -210 140 -167 118 -203 140 -234 140 -34 0 -49 -11 -178
-131 -77 -72 -144 -129 -148 -127 -5 2 -138 147 -296 323 -157 176 -300 330
-318 343 -34 25 -62 27 -94 9 -12 -7 -140 -125 -284 -264 l-262 -252 -78 39
-79 40 15 52 c201 701 572 1313 934 1540 155 97 315 129 465 93z"/>
<path d="M2892 3625 l-219 -225 -192 85 c-105 47 -202 85 -216 85 -13 0 -39
-13 -57 -29 l-33 -29 -3 -141 c-9 -324 40 -589 152 -826 191 -402 520 -694
941 -834 149 -50 263 -70 430 -78 701 -32 1341 409 1569 1080 61 178 92 426
84 666 l-5 134 -31 29 c-44 38 -78 36 -143 -9 -30 -20 -148 -102 -263 -181
l-208 -145 -227 112 c-124 61 -236 111 -247 111 -18 0 -365 -234 -425 -287
-14 -12 -45 23 -279 314 -328 410 -313 393 -366 393 -42 0 -44 -2 -262 -225z
m518 -335 c138 -173 267 -330 286 -347 60 -58 72 -53 319 122 120 85 220 155
224 155 3 0 108 -50 232 -111 172 -85 232 -110 251 -106 13 4 115 70 226 147
111 77 204 140 207 140 8 0 6 -105 -5 -208 -35 -319 -167 -605 -382 -828 -123
-127 -237 -212 -383 -284 -228 -113 -364 -145 -625 -145 -261 0 -394 31 -625
146 -425 210 -714 630 -765 1109 -9 91 -14 250 -7 250 2 0 73 -31 158 -70 85
-38 163 -70 174 -70 35 1 58 21 255 223 106 109 196 196 200 195 4 -2 121
-145 260 -318z"/>
</g>
</svg>
