<?xml version="1.0" standalone="no"?>
<!DOCTYPE svg PUBLIC "-//W3C//DTD SVG 20010904//EN"
 "http://www.w3.org/TR/2001/REC-SVG-20010904/DTD/svg10.dtd">
<svg version="1.0" xmlns="http://www.w3.org/2000/svg"
 width="80.000000pt" height="80.000000pt" viewBox="0 0 80.000000 80.000000"
 preserveAspectRatio="xMidYMid meet">

<g transform="translate(0.000000,80.000000) scale(0.100000,-0.100000)"
fill="#000000" stroke="none">
<path d="M437 744 c-10 -10 -9 -62 2 -68 5 -4 -1 -31 -12 -61 -17 -42 -27 -55
-42 -55 -12 0 -26 -5 -31 -10 -7 -7 -20 -6 -40 5 -37 19 -77 19 -115 0 -32
-17 -69 -69 -69 -97 0 -11 -8 -18 -18 -18 -43 0 -59 -69 -22 -92 13 -8 20 -24
20 -43 0 -37 41 -167 59 -189 12 -14 42 -16 240 -14 l226 3 27 80 c14 44 27
96 27 115 1 24 8 39 21 48 22 14 27 61 8 80 -7 7 -24 12 -39 12 -24 0 -27 4
-32 50 -3 27 -17 77 -31 112 -18 44 -22 65 -15 74 6 7 9 25 7 41 -3 28 -3 28
-83 31 -45 1 -84 0 -88 -4z m153 -34 c0 -18 -7 -20 -70 -20 -63 0 -70 2 -70
20 0 18 7 20 70 20 63 0 70 -2 70 -20z m-16 -62 c22 -34 56 -143 56 -178 0
-41 -14 -39 -120 20 l-89 51 15 42 c26 72 40 87 84 87 30 0 43 -5 54 -22z
m-268 -112 c18 -14 18 -16 -21 -55 -35 -37 -44 -41 -88 -41 -49 0 -49 0 -42
28 17 67 100 105 151 68z m164 -46 l85 -50 -140 0 -139 0 49 50 c27 28 52 50
55 50 3 0 43 -23 90 -50z m240 -100 c0 -23 -4 -30 -20 -30 -17 0 -20 -7 -20
-39 0 -22 -11 -76 -25 -120 l-26 -81 -219 0 -219 0 -26 81 c-14 44 -25 98 -25
120 0 32 -3 39 -20 39 -16 0 -20 7 -20 30 l0 30 310 0 310 0 0 -30z"/>
<path d="M150 350 c0 -5 5 -10 10 -10 6 0 10 5 10 10 0 6 -4 10 -10 10 -5 0
-10 -4 -10 -10z"/>
<path d="M190 350 c0 -5 5 -10 10 -10 6 0 10 5 10 10 0 6 -4 10 -10 10 -5 0
-10 -4 -10 -10z"/>
<path d="M230 350 c0 -5 5 -10 10 -10 6 0 10 5 10 10 0 6 -4 10 -10 10 -5 0
-10 -4 -10 -10z"/>
<path d="M270 350 c0 -5 5 -10 10 -10 6 0 10 5 10 10 0 6 -4 10 -10 10 -5 0
-10 -4 -10 -10z"/>
<path d="M310 350 c0 -5 5 -10 10 -10 6 0 10 5 10 10 0 6 -4 10 -10 10 -5 0
-10 -4 -10 -10z"/>
<path d="M350 350 c0 -5 5 -10 10 -10 6 0 10 5 10 10 0 6 -4 10 -10 10 -5 0
-10 -4 -10 -10z"/>
<path d="M390 350 c0 -5 5 -10 10 -10 6 0 10 5 10 10 0 6 -4 10 -10 10 -5 0
-10 -4 -10 -10z"/>
<path d="M430 350 c0 -5 5 -10 10 -10 6 0 10 5 10 10 0 6 -4 10 -10 10 -5 0
-10 -4 -10 -10z"/>
<path d="M470 350 c0 -5 5 -10 10 -10 6 0 10 5 10 10 0 6 -4 10 -10 10 -5 0
-10 -4 -10 -10z"/>
<path d="M510 350 c0 -5 5 -10 10 -10 6 0 10 5 10 10 0 6 -4 10 -10 10 -5 0
-10 -4 -10 -10z"/>
<path d="M550 350 c0 -5 5 -10 10 -10 6 0 10 5 10 10 0 6 -4 10 -10 10 -5 0
-10 -4 -10 -10z"/>
<path d="M590 350 c0 -5 5 -10 10 -10 6 0 10 5 10 10 0 6 -4 10 -10 10 -5 0
-10 -4 -10 -10z"/>
<path d="M630 350 c0 -5 5 -10 10 -10 6 0 10 5 10 10 0 6 -4 10 -10 10 -5 0
-10 -4 -10 -10z"/>
</g>
</svg>
